<?xml version="1.0" encoding="utf-8"?>
<!-- Generator: Adobe Illustrator 16.0.0, SVG Export Plug-In . SVG Version: 6.00 Build 0)  -->
<!DOCTYPE svg PUBLIC "-//W3C//DTD SVG 1.1//EN" "http://www.w3.org/Graphics/SVG/1.1/DTD/svg11.dtd">
<svg version="1.1" id="Layer_1" xmlns="http://www.w3.org/2000/svg" xmlns:xlink="http://www.w3.org/1999/xlink" x="0px" y="0px"
	 width="900px" height="900px" viewBox="0 0 900 900" enable-background="new 0 0 900 900" xml:space="preserve">
<path fill="#695951" d="M485.2,469.8c8.1-1.2,14.6-7.1,18.3-14.7c6.7-15.3,6.6-32.1,5.5-48.4c-1.2-18.8-1.3-37.3-1.4-56.1
	c-0.1-18-1-35.9-2.9-53.8c-0.6-5.3,0.6-9.7-8.5-9c-4.8,0.4-9.5-0.4-14.3-0.6c-4.8-0.1-9.5,0-14.3,0.1c-20.5,0.5-40.6,0.3-61.1-0.5
	c-20.7-0.8-55.8-3-67.5,19c-1.3,2.4-2.2,4.9-2.7,7.6c-0.6-2.7-1.5-5.2-2.7-7.6c-11.7-22-46.8-19.9-67.5-19
	c-20.4,0.8-40.6,1-61.1,0.5c-4.8-0.1-9.5-0.3-14.3-0.1c-4.7,0.1-9.5,0.9-14.3,0.6c-9-0.7-7.9,3.6-8.5,9c-1.9,17.9-2.8,35.8-2.9,53.8
	c-0.1,18.8-0.2,37.3-1.4,56.1c-1.1,16.3-1.2,33.1,5.5,48.4c3.7,7.6,10.2,13.5,18.3,14.7c-8.1,1.2-14.6,7.1-18.3,14.7
	c-6.7,15.3-6.6,32.1-5.5,48.4c1.2,18.8,1.3,37.3,1.4,56.1c0.1,18,1,35.9,2.9,53.8c0.6,5.3-0.6,9.7,8.5,9c4.8-0.4,9.5,0.4,14.3,0.6
	c4.8,0.1,9.5,0,14.3-0.2c20.5-0.5,40.6-0.3,61.1,0.5c20.7,0.8,55.8,3,67.5-19c1.3-2.4,2.2-4.9,2.7-7.6c0.6,2.7,1.5,5.2,2.7,7.6
	c11.7,22,46.8,19.9,67.5,19c20.4-0.8,40.6-1,61.1-0.5c4.8,0.1,9.5,0.3,14.3,0.2c4.8-0.1,9.5-0.9,14.3-0.6c9,0.7,7.9-3.6,8.5-9
	c1.9-17.9,2.8-35.8,2.9-53.8c0.1-18.8,0.2-37.3,1.4-56.1c1.1-16.3,1.2-33.1-5.5-48.4C499.8,476.9,493.3,471,485.2,469.8z
	 M504.8,408.5c-8.7-8.1-22.2-11.9-32.3-4.9c0.7-1.9,2.1-4.2,2.5-5.1c0.8-2.1,1.3-5.1,2.6-7c2-3.1,7-5.2,10.4-5.9
	c5.1-1.1,10.4,0.3,13.4,4.7c0.1,0.2,0.2,0.3,0.3,0.5c1.6,2.7,2.5,5.8,2.7,8.9C504.5,402.6,504.7,405.5,504.8,408.5z M470.1,333.5
	c0,3.1-0.8,6.2-2.4,8.8c-0.3,0.5-0.6,1.1-0.9,1.6c-1.3-3.4-2.6-6.6-5.6-9.1c-2.4-2-5.2-3.1-8.1-3.4
	C461.5,322,470.2,325.8,470.1,333.5C470.1,333.5,470.1,333.5,470.1,333.5z M473.8,340.1c0.5-1,1.3-3.8,2.7-4.2
	c2.3-0.7,5.1,1.9,6.2,3.7c0.3,0.5,0.5,1.1,0.6,1.7c1.1,4.6,1.2,9.4,0,13.9c-0.2,0.7-0.3,1.3-0.5,2c-1.3-2.1-2.8-4-4.7-5.5
	c-2.9-2.3-5.7-2.6-8.9-3.7C470.8,345.5,472.4,342.8,473.8,340.1z M460.1,339.8c3.3,3.9,4.5,7.7,2.1,12.1c-1.8,3.3-3.8,6.5-5.8,9.7
	c-1.3-3.9-2.3-7.3-5.6-10.6c-3.2-3.2-7.1-5.2-11.4-5.6c2.5-2.6,5-5.4,7.7-7.7C451.4,334,456.7,335.8,460.1,339.8z M464.2,356.7
	c1.6-2.8,2.5-5.2,6.2-4.2c5.6,1.5,9.2,6.2,10.8,11.5c-1.4,5.7-2.9,11.3-4.6,16.9c-2.7-7.8-8.3-15.5-16.7-17.1
	C461.3,361.5,462.7,359.1,464.2,356.7z M482.4,375.3c1.6-6,7.2-10.3,13.4-9.8c3.9,0.3,7.3,2.3,7.3,8.6c0,3.8,0.1,7.7,0.3,11.5
	c0,0.3,0,0.7,0.1,1c-6.1-6.8-15.9-6.6-23.8-2C480.6,381.5,481.5,378.4,482.4,375.3z M477.7,332c0.4-0.9,0.9-1.9,1.3-2.8
	c0.8-1.9,2.4-3.4,4.4-4c1.1-0.3,2.2-0.3,3.3,0.5c1.1,0.8,2.3,1.5,0.9,9.4c-0.1,0.7-0.2,2.9-0.5,4.6
	C485.5,335.6,482.2,332.6,477.7,332z M482.6,320.9c1.8-4.2,3.7-8.5,5.8-12.6c0.6,0.2,1.2,0.5,1.7,0.8c2.4,2.3,1.3,4.1,0.7,7.1
	c-0.4,2.1-0.8,4.2-1.2,6.4C487.7,321,485.2,320.4,482.6,320.9z M478.9,318.4c-1.9-2.7-4.9-4-8.3-4.1c0.7-0.7,1.6-1.4,1.9-1.7
	c1-1,1.9-2,2.9-3.1c1.9-2,3.9-4,5.9-5.9c1.3,0.6,2.2,1.7,3.2,2.7C482.4,310.2,480.6,314.3,478.9,318.4z M475.9,321.3
	c1.2,2.3-0.2,4.8-1.1,6.9c-0.1,0.3-0.4,1.2-0.8,2.1c-1.1-5.1-5.3-8.3-10.5-8.5C471.2,314.6,475.4,320.2,475.9,321.3z M464.8,314.7
	c-1.3,2.1-3.7,4-5.8,5.7c-1.3-4.9-3.7-9.7-8.1-12.1c1.5-0.5,3.1-1,4.5-1.2c1.9-0.3,4.4-0.8,6.3-0.1
	C464.8,308.1,466.6,311.8,464.8,314.7z M453,315.8c1.4,2.3,3.1,6,1.8,8.5c-1.1,2-3.6,3.9-5.7,5.7c-0.2-7.5-4.7-14.6-11.8-16.8
	C443,311,449.2,309.5,453,315.8z M441,320.1c3.1,3.2,4.5,8,3.8,12.3c-0.6,3.8-4.9,7.1-8,9.9c-2-9.6-6.7-18.6-16.1-22.2
	C427.1,317,435.3,314.2,441,320.1z M429,332.3c1.9,3.2,5.4,10.4,3.4,14.2c-1,1.9-3.9,3.8-5.5,5.2c-1.7,1.6-3.5,3.1-5.3,4.5
	c0.3-11.1-5.6-21.9-13.9-29.1c2.1-1.5,4.6-3.4,6.7-3.9c1.5-0.4,1.6-0.3,3.6,0.2C422.8,324.8,426.5,328.1,429,332.3z M429.3,355.1
	c1.7-1.6,3.6-4.1,5.7-5.2c4.2-2.2,9.9,0.8,12.9,3.9c2.6,2.7,6.4,8.5,5.7,12.5c-0.4,2.2-2.8,4.9-3.9,6.8c-1,1.6-1.9,3.3-2.9,4.9
	c-2.8-10.2-11.4-17.3-21.8-19C426.4,357.7,427.8,356.4,429.3,355.1z M456.3,369.9c3.7-4,9.2,0.8,11.9,4.1c2.7,3.4,4.5,7.5,5.4,11.7
	c0.9,4.6-1.6,9.8-3.6,14.2c-4.1-8.9-11.5-15.5-21.4-16.8C450.9,378.7,453.1,373.3,456.3,369.9z M503.3,365.1
	c-2.8-2.4-6.2-4.3-9.9-4.7c-3.7-0.4-5.4,0.9-8,2.3c0.3-3,2-7,2.7-9.5c0.6-2.3,0.8-8.3,3.6-9c3.4-0.8,7.4,3.4,9.4,5.7
	C504.5,354,503.7,359.8,503.3,365.1z M503.2,337.6c0,0.1,0,0.1,0,0.2c0.4,1.6,0.1,3.9,0.1,5.6c0,1,0,2,0,3
	c-3.4-3.6-7.6-6.6-12.7-6.2c0.3-3.4,0.6-9.2,3.5-9.9C498.5,329.3,502.7,333.5,503.2,337.6C503.2,337.6,503.2,337.6,503.2,337.6z
	 M502.9,329.1c-2.8-2.4-6.2-3.6-9.8-2.7c0.6-3.3,1.1-6.6,1.8-9.9c1.9-9.2,7.1-1.4,7.2-1.3C502.4,319.8,502.6,324.5,502.9,329.1z
	 M500.5,297.9c0.4,3.7,0.7,7.3,1,11c-0.5-0.3-1-0.5-1.5-0.6c-1-0.2-2.1,0.1-3.2,0.1C497.9,304.9,499.1,301.3,500.5,297.9z
	 M495.6,297.1c0.3-0.4,0.8-0.8,1.3-1.2c-1.5,3.4-2.7,7-3.7,10.6c-0.8-0.7-1.7-1.3-2.7-1.8C492,302,493.6,299.4,495.6,297.1z
	 M486.7,302.3c-0.7-0.6-1.3-1.3-2-1.9c2.1-1.8,4.3-3.7,6.6-5.2C489.4,297.8,487.7,300.6,486.7,302.3z M485.8,293.8
	c0.9-0.5,2.3-1.7,3.3-1.9c0,0,0.1,0,0.1,0c-1.2,0.8-2.5,1.7-3.7,2.6c-1.1,0.8-2.2,1.7-3.2,2.6c-0.5,0.5-1,0.9-1.6,1.4
	c-0.9-0.1-1.7-0.4-2.2-1C481,296.3,483.4,295.1,485.8,293.8z M478.9,291.5c0.7,0,1.4,0,2.1,0.1c-1.4,0.8-2.9,1.5-4.4,2.2
	c-0.3-0.8-0.8-1.5-1.3-2.2C476.6,291.5,477.7,291.5,478.9,291.5z M477.1,301.9c-2.7,2.7-5.3,5.4-7.8,8.1c-0.8-2.9-2.6-5.2-5.3-6.5
	c3.3-1.3,6.6-2.6,9.9-4C474.8,300.5,475.9,301.3,477.1,301.9z M463.1,291.8c1.5,0,5.4-0.7,6.6-0.1c1.2,0.6,2.6,3.2,2,4.3
	c-0.4,0.8-3.9,1.7-4.8,2c-2,0.8-4,1.5-6,2.3c0.4-3.3-0.8-6.2-3.2-8.4C459.6,291.9,461.4,291.8,463.1,291.8z M443.2,292.1
	c1.2,0,10.6,0.9,12.7,3.7c1,1.3,1.3,2.8,1,4.4c-0.4,1.7-1.4,2-2.9,2.7c-1.9,0.8-4,1.5-6,2.1c0.9-5.1-1.1-10-5.2-12.9
	C442.9,292.1,443,292.1,443.2,292.1z M428.6,292c5,0.1,9.9,2,13.5,5.5c2.9,2.8,4.5,6.4-0.2,9.6c-2.5,1.7-6.4,2.5-9.5,3.5
	c0.1-6.6-2-13.9-6.6-18.8C426.7,291.9,427.7,292,428.6,292z M413.4,291.4c14.5,0.3,16.7,19,13.6,21.4c-1.9,1.5-4.9,2.4-7.5,3.3
	c0.6-9.8-4.7-19.8-13-25.1C408.8,291.2,411.1,291.3,413.4,291.4z M390.6,290.5c3.4,0,6.7,0.7,9.8,2c0,0,0,0,0,0
	c4.3,1.9,7.7,4.4,10.5,8.3c2.6,3.6,4.5,8,4.8,12.5c0.2,3.4-0.6,4.6-3.5,6.4c-1.5,0.9-3.1,1.8-4.7,2.7c1.6-12.3-8.4-25.6-19-31.9
	C389.2,290.5,389.9,290.5,390.6,290.5z M272.3,292.5c3.1-1.3,6.4-2,9.8-2c0.7,0,1.4,0,2.1,0c-10.6,6.3-20.6,19.6-19,31.9
	c-1.6-0.9-3.1-1.8-4.7-2.7c-2.9-1.8-3.6-3-3.5-6.4c0.2-4.5,2.2-8.9,4.8-12.5C264.6,297,268,294.4,272.3,292.5
	C272.3,292.5,272.3,292.5,272.3,292.5z M202.5,333.5C202.5,333.5,202.5,333.5,202.5,333.5c-0.1-7.8,8.6-11.5,17.1-2
	c-3,0.3-5.7,1.4-8.1,3.4c-3.1,2.5-4.3,5.6-5.6,9.1c-0.3-0.5-0.6-1.1-0.9-1.6C203.3,339.7,202.5,336.6,202.5,333.5z M203.4,348.1
	c-3.2,1-5.9,1.3-8.9,3.7c-1.9,1.5-3.5,3.4-4.7,5.5c-0.2-0.7-0.3-1.3-0.5-2c-1.1-4.6-1.1-9.4,0-13.9c0.2-0.7,0.4-1.3,0.6-1.7
	c1.1-1.8,3.9-4.4,6.2-3.7c1.4,0.4,2.1,3.1,2.7,4.2C200.3,342.8,201.8,345.5,203.4,348.1z M212.6,339.8c3.3-4,8.6-5.8,13-2.1
	c2.7,2.3,5.2,5.1,7.7,7.7c-4.4,0.5-8.2,2.4-11.4,5.6c-3.3,3.3-4.3,6.7-5.6,10.6c-2-3.2-4-6.4-5.8-9.7
	C208,347.4,209.3,343.6,212.6,339.8z M227.8,332.3c-0.7-4.3,0.7-9.1,3.8-12.3c5.7-5.9,13.9-3,20.3,0c-9.4,3.6-14.1,12.6-16.1,22.2
	C232.7,339.4,228.5,336.1,227.8,332.3z M223.6,329.9c-2.1-1.8-4.6-3.7-5.7-5.7c-1.3-2.4,0.5-6.1,1.8-8.5c3.7-6.3,10-4.8,15.7-2.7
	C228.2,315.3,223.8,322.5,223.6,329.9z M213.6,320.4c-2.1-1.7-4.5-3.6-5.8-5.7c-1.8-2.8,0-6.6,3.1-7.7c1.9-0.7,4.4-0.2,6.3,0.1
	c1.4,0.2,2.9,0.7,4.5,1.2C217.3,310.6,214.9,315.5,213.6,320.4z M209.1,321.9c-5.2,0.2-9.4,3.4-10.5,8.5c-0.3-0.9-0.6-1.8-0.8-2.1
	c-0.9-2.2-2.3-4.6-1.1-6.9C197.3,320.2,201.5,314.6,209.1,321.9z M193.7,318.4c-1.7-4.1-3.5-8.1-5.6-12c1-1,1.9-2.1,3.2-2.7
	c2,1.9,3.9,3.9,5.9,5.9c1,1,1.9,2,2.9,3.1c0.3,0.3,1.2,1,1.9,1.7C198.6,314.3,195.6,315.6,193.7,318.4z M190,320.9
	c-2.6-0.5-5,0-7.1,1.7c-0.4-2.1-0.7-4.2-1.2-6.4c-0.6-3-1.6-4.8,0.7-7.1c0.5-0.4,1.1-0.6,1.7-0.8C186.3,312.5,188.1,316.7,190,320.9
	z M185.9,325.7c1.1-0.8,2.2-0.8,3.3-0.5c2,0.6,3.5,2.1,4.4,4c0.4,0.9,0.9,1.9,1.3,2.8c-4.5,0.6-7.7,3.6-9.4,7.7
	c-0.3-1.7-0.4-3.9-0.5-4.6C183.7,327.2,184.9,326.5,185.9,325.7z M190.3,375.3c0.9,3.1,1.7,6.2,2.7,9.3c-7.9-4.6-17.7-4.9-23.8,2
	c0-0.3,0-0.7,0.1-1c0.2-3.8,0.3-7.7,0.3-11.5c0-6.3,3.4-8.3,7.3-8.6C183,365,188.6,369.3,190.3,375.3z M191.5,364.1
	c1.6-5.4,5.2-10,10.8-11.5c3.6-1,4.5,1.4,6.2,4.2c1.4,2.4,2.9,4.8,4.3,7.2c-8.3,1.5-14,9.3-16.7,17.1
	C194.4,375.4,192.9,369.7,191.5,364.1z M199.1,385.7c0.9-4.2,2.7-8.3,5.4-11.7c2.7-3.3,8.2-8.1,11.9-4.1c3.2,3.4,5.5,8.8,7.8,13.2
	c-9.9,1.3-17.3,7.9-21.4,16.8C200.6,395.5,198.1,390.3,199.1,385.7z M223.1,373.1c-1.1-1.9-3.5-4.6-3.9-6.8c-0.8-4,3-9.9,5.7-12.5
	c3-3.1,8.7-6,12.9-3.9c2.1,1.1,4,3.6,5.7,5.2c1.4,1.3,2.9,2.6,4.3,3.9c-10.3,1.7-19,8.8-21.8,19C225,376.4,224,374.8,223.1,373.1z
	 M245.7,351.7c-1.6-1.5-4.5-3.3-5.5-5.2c-1.9-3.8,1.5-10.9,3.4-14.2c2.5-4.2,6.2-7.5,11-8.9c1.9-0.5,2.1-0.6,3.6-0.2
	c2.2,0.5,4.7,2.4,6.7,3.9c-8.3,7.2-14.2,18-13.9,29.1C249.3,354.8,247.5,353.3,245.7,351.7z M259.2,291.4c2.3,0,4.6-0.2,6.9-0.3
	c-8.3,5.3-13.6,15.2-13,25.1c-2.5-1-5.5-1.8-7.5-3.3C242.5,310.3,244.7,291.7,259.2,291.4z M244,292c0.9,0,1.9-0.1,2.8-0.1
	c-4.6,4.9-6.7,12.2-6.6,18.8c-3.1-1-7-1.8-9.5-3.5c-4.8-3.2-3.1-6.7-0.2-9.6C234.1,294,239,292.1,244,292z M216.8,295.8
	c2.1-2.8,11.5-3.7,12.7-3.7c0.2,0,0.3,0,0.5,0c-4,2.9-6.1,7.8-5.2,12.9c-2-0.7-4.1-1.3-6-2.1c-1.5-0.7-2.6-0.9-2.9-2.7
	C215.5,298.6,215.8,297.1,216.8,295.8z M202.9,291.7c1.2-0.6,5.1,0,6.6,0.1c1.8,0,3.6,0.1,5.3,0.1c-2.4,2.2-3.6,5.1-3.2,8.4
	c-2-0.8-4-1.5-6-2.3c-0.9-0.3-4.3-1.2-4.8-2C200.3,294.9,201.8,292.3,202.9,291.7z M198.7,299.5c3.3,1.4,6.6,2.7,9.9,4
	c-2.7,1.3-4.5,3.6-5.3,6.5c-2.6-2.8-5.2-5.5-7.8-8.1C196.7,301.3,197.8,300.5,198.7,299.5z M193.7,291.5c1.2,0,2.3,0,3.5,0.1
	c-0.5,0.7-0.9,1.4-1.3,2.2c-1.5-0.7-2.9-1.4-4.4-2.2C192.3,291.5,193,291.5,193.7,291.5z M183.6,291.9c1,0.2,2.4,1.4,3.3,1.9
	c2.4,1.3,4.8,2.5,7.3,3.7c-0.6,0.6-1.3,0.9-2.2,1c-0.5-0.5-1-0.9-1.6-1.4c-1.1-0.9-2.1-1.8-3.2-2.6c-1.2-0.9-2.4-1.8-3.7-2.6
	C183.5,291.9,183.5,291.8,183.6,291.9z M187.9,300.4c-0.7,0.6-1.3,1.3-2,1.9c-1-1.7-2.7-4.6-4.6-7.1
	C183.7,296.8,185.9,298.6,187.9,300.4z M177,297.1c2,2.3,3.6,4.9,5.1,7.5c-1,0.5-1.9,1.1-2.7,1.8c-1-3.6-2.2-7.1-3.7-10.6
	C176.2,296.3,176.7,296.7,177,297.1z M172.1,297.9c1.5,3.4,2.7,6.9,3.7,10.5c-1,0-2.1-0.4-3.2-0.1c-0.6,0.1-1.1,0.4-1.5,0.6
	C171.4,305.3,171.7,301.6,172.1,297.9z M170.6,315.2c0.1-0.1,5.2-7.9,7.2,1.3c0.7,3.3,1.3,6.6,1.8,9.9c-3.6-0.8-7,0.3-9.8,2.7
	C170,324.5,170.2,319.8,170.6,315.2z M169.4,337.8c0-0.1,0-0.1,0-0.2c0,0,0,0,0-0.1c0.5-4,4.6-8.3,9-7.2c2.8,0.7,3.1,6.5,3.5,9.9
	c-5.1-0.3-9.3,2.6-12.7,6.2c0-1,0-2,0-3C169.3,341.7,169,339.4,169.4,337.8z M171.6,349.9c2-2.3,6-6.4,9.4-5.7
	c2.8,0.7,3.1,6.7,3.6,9c0.6,2.5,2.3,6.4,2.7,9.5c-2.6-1.4-4.2-2.7-8-2.3c-3.8,0.4-7.1,2.3-9.9,4.7C169,359.8,168.1,354,171.6,349.9z
	 M168.3,399.7c0.2-3.1,1.1-6.2,2.7-8.9c0.1-0.2,0.2-0.3,0.3-0.5c3-4.4,8.3-5.8,13.4-4.7c3.5,0.7,8.4,2.8,10.4,5.9
	c1.3,1.9,1.7,4.9,2.6,7c0.4,1,1.7,3.3,2.5,5.1c-10.2-7-23.6-3.3-32.3,4.9C168,405.5,168.1,402.6,168.3,399.7z M167.8,531.1
	c8.7,8.1,22.2,11.9,32.3,4.9c-0.7,1.9-2.1,4.2-2.5,5.1c-0.9,2.1-1.3,5.1-2.6,7c-2,3.1-7,5.2-10.4,5.9c-5.1,1.1-10.4-0.3-13.4-4.7
	c-0.1-0.2-0.2-0.3-0.3-0.5c-1.6-2.7-2.5-5.8-2.7-8.9C168.1,537,168,534.1,167.8,531.1z M202.5,606c0-3.1,0.8-6.2,2.4-8.8
	c0.3-0.5,0.6-1.1,0.9-1.6c1.3,3.4,2.6,6.6,5.6,9.1c2.4,2,5.2,3.1,8.1,3.4C211.1,617.6,202.4,613.8,202.5,606
	C202.5,606.1,202.5,606.1,202.5,606z M198.9,599.5c-0.5,1-1.3,3.8-2.7,4.2c-2.3,0.7-5.1-1.9-6.2-3.7c-0.3-0.5-0.5-1.1-0.6-1.7
	c-1.1-4.6-1.2-9.4,0-13.9c0.2-0.7,0.3-1.3,0.5-2c1.3,2.1,2.8,4,4.7,5.5c2.9,2.3,5.7,2.6,8.9,3.7
	C201.8,594.1,200.3,596.8,198.9,599.5z M212.6,599.8c-3.3-3.9-4.5-7.7-2.1-12.1c1.8-3.3,3.8-6.5,5.8-9.7c1.3,3.9,2.3,7.3,5.6,10.6
	c3.2,3.2,7.1,5.2,11.4,5.6c-2.5,2.6-5,5.4-7.7,7.7C221.2,605.6,215.9,603.8,212.6,599.8z M208.5,582.9c-1.6,2.8-2.5,5.2-6.2,4.2
	c-5.6-1.5-9.2-6.2-10.8-11.5c1.4-5.7,2.9-11.3,4.6-16.9c2.7,7.8,8.3,15.5,16.7,17.1C211.3,578.1,209.9,580.5,208.5,582.9z
	 M190.3,564.3c-1.6,6-7.2,10.3-13.4,9.8c-3.9-0.3-7.3-2.3-7.3-8.6c0-3.8-0.1-7.7-0.3-11.5c0-0.3,0-0.7-0.1-1
	c6.1,6.8,15.9,6.6,23.8,2C192,558.1,191.1,561.2,190.3,564.3z M194.9,607.6c-0.4,0.9-0.9,1.9-1.3,2.8c-0.8,1.9-2.4,3.4-4.4,4
	c-1.1,0.3-2.2,0.3-3.3-0.5c-1.1-0.8-2.3-1.5-0.9-9.4c0.1-0.7,0.2-2.9,0.5-4.6C187.2,604,190.4,607,194.9,607.6z M190,618.6
	c-1.8,4.2-3.7,8.5-5.8,12.6c-0.6-0.2-1.2-0.5-1.7-0.8c-2.4-2.3-1.3-4.1-0.7-7.1c0.4-2.1,0.8-4.2,1.2-6.4
	C184.9,618.6,187.4,619.1,190,618.6z M193.7,621.2c1.9,2.7,4.9,4,8.2,4.1c-0.7,0.7-1.6,1.4-1.9,1.7c-1,1-1.9,2-2.9,3.1
	c-1.9,2-3.9,4-5.9,5.9c-1.3-0.6-2.2-1.7-3.2-2.7C190.2,629.3,192,625.3,193.7,621.2z M196.7,618.3c-1.2-2.3,0.2-4.8,1.1-6.9
	c0.1-0.3,0.4-1.2,0.8-2.1c1.1,5.1,5.3,8.3,10.5,8.5C201.5,625,197.3,619.3,196.7,618.3z M207.8,624.9c1.3-2.1,3.7-4,5.8-5.7
	c1.3,4.9,3.7,9.7,8.1,12.1c-1.5,0.5-3.1,1-4.5,1.2c-1.9,0.3-4.4,0.8-6.3,0.1C207.8,631.5,206,627.8,207.8,624.9z M219.7,623.8
	c-1.4-2.3-3.1-6-1.8-8.4c1.1-2,3.6-3.9,5.7-5.7c0.2,7.5,4.7,14.6,11.8,16.8C229.6,628.6,223.4,630.1,219.7,623.8z M231.6,619.5
	c-3.1-3.2-4.5-8-3.8-12.3c0.6-3.8,4.9-7.1,8-9.9c2,9.6,6.7,18.6,16.1,22.2C245.5,622.5,237.3,625.4,231.6,619.5z M243.7,607.3
	c-1.9-3.2-5.4-10.4-3.4-14.2c1-1.9,3.9-3.8,5.5-5.2c1.7-1.6,3.5-3.1,5.3-4.5c-0.3,11.1,5.6,21.9,13.9,29.1c-2.1,1.5-4.6,3.4-6.7,3.9
	c-1.5,0.4-1.6,0.3-3.6-0.2C249.9,614.8,246.2,611.5,243.7,607.3z M243.4,584.5c-1.7,1.6-3.6,4.1-5.7,5.2c-4.2,2.2-9.9-0.8-12.9-3.9
	c-2.6-2.7-6.4-8.5-5.7-12.5c0.4-2.2,2.8-4.9,3.9-6.8c1-1.6,1.9-3.3,2.9-4.9c2.8,10.2,11.4,17.3,21.8,19
	C246.2,581.8,244.8,583.2,243.4,584.5z M216.3,569.7c-3.7,4-9.2-0.8-11.9-4.1c-2.7-3.4-4.5-7.5-5.4-11.7c-0.9-4.6,1.6-9.8,3.6-14.2
	c4.1,8.9,11.5,15.5,21.4,16.8C221.8,560.9,219.5,566.3,216.3,569.7z M169.3,574.5c2.8,2.4,6.2,4.3,9.9,4.7c3.7,0.4,5.4-0.9,8-2.3
	c-0.3,3-2,7-2.7,9.5c-0.6,2.3-0.8,8.3-3.6,9c-3.4,0.8-7.4-3.4-9.4-5.7C168.1,585.6,169,579.8,169.3,574.5z M169.4,602
	c0-0.1,0-0.1,0-0.2c-0.4-1.6-0.1-3.9-0.1-5.6c0-1,0-2,0-3c3.4,3.6,7.6,6.6,12.7,6.2c-0.3,3.4-0.6,9.2-3.5,9.9
	C174.1,610.3,170,606.1,169.4,602C169.5,602,169.5,602,169.4,602z M169.8,610.5c2.8,2.4,6.2,3.6,9.8,2.7c-0.6,3.3-1.1,6.6-1.8,9.9
	c-1.9,9.2-7.1,1.4-7.2,1.3C170.2,619.7,170,615.1,169.8,610.5z M172.1,641.7c-0.4-3.7-0.7-7.3-1-11c0.5,0.3,1,0.5,1.5,0.6
	c1,0.2,2.1-0.1,3.2-0.1C174.7,634.7,173.5,638.3,172.1,641.7z M177,642.5c-0.3,0.4-0.8,0.8-1.3,1.2c1.5-3.4,2.7-7,3.7-10.6
	c0.8,0.7,1.7,1.3,2.7,1.8C180.6,637.6,179,640.2,177,642.5z M185.9,637.3c0.7,0.6,1.3,1.3,2,1.9c-2.1,1.8-4.3,3.7-6.6,5.2
	C183.2,641.8,184.9,639,185.9,637.3z M186.8,645.8c-0.9,0.5-2.3,1.7-3.3,1.9c0,0-0.1,0-0.1,0c1.2-0.8,2.5-1.7,3.7-2.6
	c1.1-0.8,2.2-1.7,3.2-2.6c0.5-0.5,1-0.9,1.6-1.4c0.9,0.1,1.7,0.4,2.2,1C191.7,643.3,189.2,644.5,186.8,645.8z M193.7,648.1
	c-0.7,0-1.4,0-2.1-0.1c1.4-0.8,2.9-1.5,4.4-2.2c0.3,0.8,0.8,1.5,1.3,2.2C196.1,648.1,194.9,648.1,193.7,648.1z M195.5,637.7
	c2.7-2.7,5.3-5.4,7.8-8.2c0.9,2.9,2.6,5.2,5.3,6.5c-3.3,1.3-6.6,2.6-9.9,4C197.8,639.1,196.7,638.3,195.5,637.7z M209.5,647.8
	c-1.5,0-5.4,0.7-6.6,0.1c-1.2-0.6-2.6-3.2-2-4.3c0.4-0.8,3.9-1.7,4.8-2c2-0.8,4-1.5,6-2.3c-0.4,3.3,0.8,6.2,3.2,8.4
	C213.1,647.7,211.3,647.8,209.5,647.8z M229.4,647.5c-1.2,0-10.6-0.9-12.7-3.7c-1-1.3-1.3-2.8-1-4.4c0.4-1.7,1.4-2,2.9-2.7
	c1.9-0.8,4-1.5,6-2.1c-0.9,5.1,1.1,10,5.2,12.9C229.8,647.5,229.6,647.5,229.4,647.5z M244,647.6c-5-0.1-9.9-2-13.5-5.5
	c-2.9-2.8-4.5-6.4,0.2-9.6c2.5-1.7,6.4-2.5,9.5-3.5c-0.1,6.6,2,13.9,6.6,18.8C245.9,647.6,245,647.6,244,647.6z M259.2,648.2
	c-14.5-0.3-16.7-19-13.6-21.4c1.9-1.5,4.9-2.4,7.5-3.3c-0.6,9.8,4.7,19.8,13,25.1C263.8,648.4,261.5,648.3,259.2,648.2z
	 M282.1,649.1c-3.4,0-6.7-0.7-9.8-2c0,0,0,0,0,0c-4.3-1.9-7.7-4.4-10.5-8.3c-2.6-3.6-4.5-8-4.8-12.5c-0.2-3.4,0.6-4.6,3.5-6.4
	c1.5-0.9,3.1-1.8,4.7-2.7c-1.6,12.3,8.4,25.6,19,31.9C283.5,649.1,282.8,649.1,282.1,649.1z M400.3,647.1c-3.1,1.3-6.4,2-9.8,2
	c-0.7,0-1.4,0-2.1,0c10.6-6.3,20.6-19.6,19-31.9c1.6,0.9,3.1,1.8,4.7,2.7c2.9,1.8,3.6,3,3.5,6.4c-0.2,4.5-2.2,8.9-4.8,12.5
	C408.1,642.6,404.6,645.2,400.3,647.1C400.4,647.1,400.3,647.1,400.3,647.1z M470.1,606C470.1,606.1,470.1,606.1,470.1,606
	c0.1,7.8-8.6,11.5-17.1,2c3-0.3,5.7-1.4,8.1-3.4c3.1-2.5,4.3-5.6,5.6-9.1c0.3,0.5,0.6,1.1,0.9,1.6
	C469.3,599.9,470.1,602.9,470.1,606z M469.2,591.5c3.2-1,5.9-1.3,8.9-3.7c1.9-1.5,3.5-3.4,4.7-5.5c0.2,0.7,0.3,1.3,0.5,2
	c1.1,4.6,1.1,9.4,0,13.9c-0.2,0.7-0.3,1.3-0.6,1.7c-1.1,1.8-3.9,4.4-6.2,3.7c-1.4-0.4-2.1-3.1-2.7-4.2
	C472.4,596.8,470.8,594.1,469.2,591.5z M460.1,599.8c-3.3,4-8.6,5.8-13,2.1c-2.7-2.3-5.2-5.1-7.7-7.7c4.4-0.5,8.2-2.4,11.4-5.6
	c3.3-3.3,4.3-6.7,5.6-10.6c2,3.2,4,6.4,5.8,9.7C464.6,592.2,463.4,595.9,460.1,599.8z M444.8,607.2c0.7,4.3-0.7,9.1-3.8,12.3
	c-5.7,5.9-13.9,3-20.3,0c9.4-3.6,14.1-12.6,16.1-22.2C439.9,600.1,444.2,603.5,444.8,607.2z M449.1,609.7c2.1,1.8,4.6,3.7,5.7,5.7
	c1.3,2.4-0.5,6.1-1.8,8.4c-3.7,6.3-10,4.8-15.7,2.7C444.4,624.3,448.9,617.1,449.1,609.7z M459,619.2c2.1,1.7,4.5,3.6,5.8,5.7
	c1.8,2.8,0,6.6-3.1,7.7c-1.9,0.7-4.4,0.2-6.3-0.1c-1.4-0.2-2.9-0.7-4.5-1.2C455.4,629,457.7,624.1,459,619.2z M463.5,617.7
	c5.2-0.2,9.4-3.4,10.5-8.5c0.3,0.9,0.6,1.8,0.8,2.1c0.9,2.2,2.3,4.6,1.1,6.9C475.4,619.3,471.2,625,463.5,617.7z M478.9,621.2
	c1.7,4.1,3.5,8.1,5.6,12c-1,1-1.9,2.1-3.2,2.7c-2-1.9-3.9-3.9-5.9-5.9c-1-1-1.9-2-2.9-3.1c-0.3-0.3-1.2-1-1.9-1.7
	C474,625.3,477,623.9,478.9,621.2z M482.6,618.6c2.6,0.5,5,0,7.1-1.7c0.4,2.1,0.7,4.2,1.2,6.4c0.6,3,1.6,4.8-0.7,7.1
	c-0.5,0.3-1.1,0.6-1.7,0.8C486.4,627.1,484.5,622.9,482.6,618.6z M486.7,613.9c-1.1,0.8-2.2,0.8-3.3,0.5c-2-0.6-3.5-2.1-4.4-4
	c-0.4-0.9-0.8-1.9-1.3-2.8c4.5-0.6,7.7-3.6,9.4-7.7c0.3,1.7,0.4,3.9,0.5,4.6C489,612.4,487.8,613.1,486.7,613.9z M482.4,564.3
	c-0.9-3.1-1.7-6.2-2.7-9.3c7.9,4.6,17.7,4.9,23.8-2c0,0.3,0,0.7-0.1,1c-0.2,3.8-0.3,7.7-0.3,11.5c0,6.3-3.4,8.3-7.3,8.6
	C489.6,574.6,484,570.3,482.4,564.3z M481.1,575.5c-1.6,5.4-5.2,10-10.8,11.5c-3.6,1-4.5-1.4-6.2-4.2c-1.4-2.4-2.9-4.8-4.3-7.2
	c8.3-1.5,14-9.3,16.7-17.1C478.2,564.2,479.7,569.9,481.1,575.5z M473.6,553.9c-0.9,4.2-2.7,8.3-5.4,11.7c-2.7,3.3-8.2,8.1-11.9,4.1
	c-3.2-3.4-5.5-8.8-7.8-13.2c9.9-1.3,17.3-7.9,21.4-16.8C472,544.1,474.5,549.3,473.6,553.9z M449.6,566.5c1.1,1.9,3.5,4.6,3.9,6.8
	c0.8,4-3,9.9-5.7,12.5c-3,3.1-8.7,6-12.9,3.9c-2.1-1.1-4-3.6-5.7-5.2c-1.4-1.3-2.9-2.6-4.3-3.9c10.3-1.7,19-8.8,21.8-19
	C447.7,563.2,448.6,564.8,449.6,566.5z M426.9,587.9c1.6,1.5,4.5,3.3,5.5,5.2c1.9,3.8-1.5,10.9-3.4,14.2c-2.5,4.2-6.2,7.5-11,8.9
	c-1.9,0.5-2.1,0.6-3.6,0.2c-2.2-0.5-4.7-2.4-6.7-3.9c8.3-7.2,14.2-18,13.9-29.1C423.4,584.8,425.2,586.3,426.9,587.9z M413.4,648.2
	c-2.3,0-4.6,0.2-6.9,0.3c8.3-5.3,13.6-15.2,13-25.1c2.5,1,5.5,1.8,7.5,3.3C430.1,629.3,427.9,647.9,413.4,648.2z M428.6,647.6
	c-0.9,0-1.9,0.1-2.8,0.1c4.6-4.9,6.7-12.2,6.6-18.8c3.1,1,7,1.8,9.5,3.5c4.8,3.2,3.1,6.7,0.2,9.6
	C438.5,645.6,433.6,647.4,428.6,647.6z M455.8,643.8c-2.1,2.8-11.5,3.7-12.7,3.7c-0.2,0-0.3,0-0.5,0c4-2.9,6.1-7.8,5.2-12.9
	c2,0.7,4.1,1.3,6,2.1c1.5,0.7,2.6,0.9,2.9,2.7C457.2,641,456.8,642.5,455.8,643.8z M469.7,647.9c-1.2,0.6-5.1,0-6.6-0.1
	c-1.8,0-3.6-0.1-5.3-0.1c2.4-2.2,3.6-5.1,3.2-8.4c2,0.8,4,1.5,6,2.3c0.9,0.3,4.3,1.2,4.8,2C472.4,644.7,470.9,647.3,469.7,647.9z
	 M473.9,640.1c-3.3-1.4-6.6-2.7-9.9-4c2.7-1.3,4.5-3.6,5.3-6.5c2.6,2.8,5.2,5.5,7.8,8.2C475.9,638.3,474.8,639.1,473.9,640.1z
	 M478.9,648.1c-1.2,0-2.3,0-3.5-0.1c0.5-0.7,0.9-1.4,1.3-2.2c1.5,0.7,2.9,1.4,4.4,2.2C480.3,648.1,479.6,648.1,478.9,648.1z
	 M489.1,647.7c-1-0.2-2.4-1.4-3.3-1.9c-2.4-1.3-4.8-2.5-7.3-3.7c0.6-0.6,1.3-0.9,2.2-1c0.5,0.5,1,0.9,1.6,1.4c1,0.9,2.1,1.8,3.2,2.6
	c1.2,0.9,2.4,1.8,3.7,2.6C489.1,647.7,489.1,647.7,489.1,647.7z M484.7,639.2c0.7-0.6,1.3-1.3,2-1.9c1,1.7,2.7,4.6,4.6,7.1
	C489,642.8,486.8,641,484.7,639.2z M495.6,642.5c-2-2.3-3.6-4.9-5.1-7.5c1-0.5,1.9-1.1,2.7-1.8c1,3.6,2.2,7.1,3.7,10.6
	C496.4,643.3,495.9,642.9,495.6,642.5z M500.5,641.7c-1.5-3.4-2.7-6.9-3.7-10.5c1,0,2.1,0.4,3.2,0.1c0.6-0.1,1.1-0.3,1.5-0.6
	C501.3,634.3,500.9,638,500.5,641.7z M502.1,624.4c-0.1,0.1-5.2,7.9-7.2-1.3c-0.7-3.3-1.3-6.6-1.8-9.9c3.6,0.8,7-0.3,9.8-2.7
	C502.6,615.1,502.4,619.7,502.1,624.4z M503.2,601.8c0,0.1,0,0.1,0,0.2c0,0,0,0,0,0.1c-0.5,4-4.6,8.3-9,7.2
	c-2.9-0.7-3.1-6.5-3.5-9.9c5.1,0.3,9.3-2.6,12.7-6.2c0,1,0,2,0,3C503.3,597.9,503.6,600.1,503.2,601.8z M501,589.6
	c-2,2.3-6,6.4-9.4,5.7c-2.8-0.7-3.1-6.7-3.6-9c-0.6-2.5-2.3-6.4-2.7-9.5c2.6,1.4,4.2,2.7,8,2.3c3.8-0.4,7.1-2.3,9.9-4.7
	C503.7,579.8,504.5,585.6,501,589.6z M504.3,539.9c-0.2,3.1-1.1,6.2-2.7,8.9c-0.1,0.2-0.2,0.3-0.3,0.5c-3,4.4-8.3,5.8-13.4,4.7
	c-3.5-0.7-8.4-2.8-10.4-5.9c-1.3-1.9-1.7-4.9-2.6-7c-0.4-1-1.7-3.3-2.5-5.1c10.2,7,23.6,3.2,32.3-4.9
	C504.7,534.1,504.5,537,504.3,539.9z M505.1,517.5c0,1.9,0.7,5.2,0.2,6.9c-0.7,2.6-5.2,5.7-7.3,7c-21.1,13.9-31.3-10.9-33-2.7
	c-0.2,0.8,0.4,1.5,0.6,2.2c1,2.6,1.7,3.7,0.9,6.4c-1.5,5.2-6.1,10.3-10.7,12.9c-1.8,1-6,2.9-8.2,2.5c-1.7-0.3-2.7-2.5-3.8-4.3
	c-1.3-2.1-4.7-3.6-4.5,0.2c0.1,1.2,1.1,2.2,1.6,3.2c1.5,2.6,2.6,4.8,2,7.8c-0.9,4.3-3.3,8.3-6.5,11.2c-2.9,2.7-6.6,4.6-10.5,5.4
	c-2.4,0.5-4.5,0.5-6.9,0.2c-1.2-0.2-2.8-0.9-4-0.5c-4,1.5,0.3,3.9,1.3,5.2c2.4,3,0.5,8.9-0.6,12.3c-1.5,4.3-3.9,8.4-6.8,11.9
	c-1.1,1.3-2.2,2.5-3.5,3.6c-1.3,1.1-1.4,0.5-2.5,1c-1,0.4-1.9,0.7-1.9,2.1c0,0.8,0.9,1.5,1,1.7c2.8,5.4,1.3,11.2-1.5,16.3
	c-3.8,6.9-10.5,15-18.2,17.5c-8.3,2.7-19.9-1-27.6-4.7c-14-6.6-17.2-22.1-13-36c4.7-15.3,20.8-33.4,38.2-24.5
	c7.8,4,12.9,12.2,12.4,21c-0.6,8.3-6.9,16.3-15.7,16.6c-4.9,0.1-9.4-2.7-11.6-7c-1.1-2.1-1.7-4.7-0.7-7c1.5-3.4,3.8-2.2,6.1-3.7
	c2-1.3,1.9-3.6-0.7-4c-4.6-0.7-9.1,4.1-9.8,8.2c-1,5.1,1.9,10.5,5.7,13.7c8.8,7.4,22.1,3.2,28-5.8c12.3-19-10.1-43.3-30.2-37.5
	c-13.7,3.9-24.1,18.5-27,33.5c-2.9-15-13.4-29.5-27-33.5c-20.1-5.8-42.6,18.5-30.2,37.5c5.9,9.1,19.1,13.2,28,5.8
	c3.9-3.2,6.7-8.6,5.7-13.7c-0.8-4.1-5.2-8.8-9.8-8.2c-2.6,0.4-2.6,2.7-0.7,4c2.3,1.5,4.5,0.3,6.1,3.7c1,2.2,0.4,4.9-0.7,7
	c-2.2,4.3-6.7,7.1-11.6,7c-8.8-0.2-15.2-8.2-15.7-16.6c-0.6-8.8,4.6-17,12.4-21c17.4-8.9,33.5,9.1,38.2,24.5c4.2,13.8,1,29.4-13,36
	c-7.7,3.6-19.2,7.4-27.6,4.7c-7.7-2.5-14.4-10.6-18.2-17.5c-2.8-5.1-4.3-10.9-1.5-16.3c0.1-0.2,1-0.9,1-1.7c0-1.4-0.9-1.7-1.9-2.1
	c-1.1-0.5-1.2,0.1-2.5-1c-1.3-1.1-2.4-2.3-3.5-3.6c-2.9-3.5-5.3-7.6-6.8-11.9c-1.2-3.4-3-9.2-0.6-12.3c1-1.3,5.3-3.7,1.3-5.2
	c-1.2-0.4-2.8,0.3-4,0.5c-2.4,0.3-4.5,0.3-6.9-0.2c-3.9-0.8-7.6-2.8-10.5-5.4c-3.3-3-5.6-6.9-6.5-11.2c-0.6-3.1,0.5-5.2,2-7.8
	c0.6-1,1.6-2,1.6-3.2c0.3-3.8-3.2-2.3-4.5-0.2c-1.2,1.8-2.1,4-3.8,4.3c-2.2,0.4-6.4-1.5-8.2-2.5c-4.6-2.6-9.2-7.8-10.7-12.9
	c-0.8-2.7-0.1-3.8,0.9-6.4c0.3-0.7,0.8-1.3,0.6-2.2c-1.7-8.1-11.9,16.6-33,2.7c-2-1.3-6.6-4.5-7.3-7c-0.5-1.8,0.2-5,0.2-6.9
	c0-2.2,0.1-4.4,0.2-6.6c0.5-8.8,1.6-18.2,5.8-26.1c9.2-17.5,30.2-11.2,38.1,3.8c3.7,7.1,4,15.3-1.6,21.5c-2.2,2.5-5.2,4.9-8.5,5.7
	c-5.3,1.3-8.7-3.1-9.6-7.8c-0.3-1.8-0.8-5.5,0.1-7.1c0.5-0.9,3.8-2.9,5.1-2.7c0.8,0.1,1.7,1.4,2.3,1.8c0.8,0.5,1.4,1.3,2.4,1
	c3.5-0.9,0.4-4.2-1-5.3c-8.7-6.8-14.3,2.1-13.4,10.8c1,10.1,9,16.5,18.6,11.5c9.7-5.1,14.3-15.9,11.1-26.3
	c-3.1-10.5-12.6-20.3-23.6-21.9c11.1-1.7,20.5-11.5,23.6-21.9c3.1-10.5-1.5-21.3-11.1-26.3c-9.6-5.1-17.6,1.4-18.6,11.5
	c-0.9,8.7,4.6,17.6,13.4,10.8c1.4-1.1,4.4-4.4,1-5.3c-1-0.3-1.6,0.5-2.4,1c-0.7,0.4-1.5,1.7-2.3,1.8c-1.3,0.2-4.6-1.8-5.1-2.7
	c-1-1.6-0.5-5.3-0.1-7.1c0.9-4.7,4.3-9.1,9.6-7.8c3.3,0.8,6.3,3.2,8.5,5.7c5.6,6.2,5.3,14.4,1.6,21.5c-7.8,15-28.8,21.3-38.1,3.8
	c-4.2-7.9-5.2-17.3-5.8-26.1c-0.1-2.2-0.2-4.4-0.2-6.6c0-1.9-0.7-5.2-0.2-6.9c0.7-2.6,5.2-5.7,7.3-7c21.1-13.9,31.3,10.9,33,2.7
	c0.2-0.8-0.4-1.5-0.6-2.2c-1-2.6-1.7-3.7-0.9-6.4c1.5-5.2,6.1-10.3,10.7-12.9c1.8-1,6-2.9,8.2-2.5c1.7,0.3,2.7,2.5,3.8,4.3
	c1.3,2.1,4.7,3.6,4.5-0.2c-0.1-1.2-1.1-2.2-1.6-3.2c-1.5-2.6-2.6-4.8-2-7.8c0.9-4.3,3.3-8.3,6.5-11.2c2.9-2.7,6.6-4.6,10.5-5.4
	c2.4-0.5,4.5-0.5,6.9-0.2c1.2,0.2,2.8,0.9,4,0.5c4-1.5-0.3-3.9-1.3-5.2c-2.4-3-0.5-8.9,0.6-12.3c1.5-4.3,3.9-8.4,6.8-11.9
	c1.1-1.3,2.2-2.5,3.5-3.6c1.3-1.1,1.4-0.5,2.5-1c1-0.4,1.9-0.7,1.9-2.1c0-0.8-0.9-1.5-1-1.7c-2.8-5.4-1.3-11.2,1.5-16.3
	c3.8-6.9,10.5-15,18.2-17.5c8.3-2.7,19.9,1,27.6,4.7c14,6.6,17.2,22.1,13,36c-4.7,15.3-20.8,33.4-38.2,24.5
	c-7.8-4-12.9-12.2-12.4-21c0.6-8.3,6.9-16.3,15.7-16.6c4.9-0.1,9.4,2.7,11.6,7c1.1,2.1,1.7,4.7,0.7,7c-1.5,3.4-3.8,2.2-6.1,3.7
	c-2,1.3-1.9,3.6,0.7,4c4.6,0.7,9.1-4.1,9.8-8.2c1-5.1-1.9-10.5-5.7-13.7c-8.8-7.4-22.1-3.2-28,5.8c-12.3,19,10.1,43.3,30.2,37.5
	c13.7-3.9,24.1-18.5,27-33.5c2.9,15,13.4,29.5,27,33.5c20.1,5.8,42.6-18.5,30.2-37.5c-5.9-9.1-19.1-13.2-28-5.8
	c-3.9,3.2-6.7,8.6-5.7,13.7c0.8,4.1,5.2,8.8,9.8,8.2c2.6-0.4,2.6-2.7,0.7-4c-2.3-1.5-4.5-0.3-6.1-3.7c-1-2.2-0.4-4.9,0.7-7
	c2.2-4.3,6.7-7.2,11.6-7c8.8,0.2,15.2,8.2,15.7,16.6c0.6,8.8-4.6,17-12.4,21c-17.4,9-33.5-9.1-38.2-24.5c-4.2-13.8-1-29.4,13-36
	c7.7-3.6,19.2-7.4,27.6-4.7c7.7,2.5,14.4,10.6,18.2,17.5c2.8,5.1,4.3,10.9,1.5,16.3c-0.1,0.2-1,0.9-1,1.7c0,1.4,0.9,1.7,1.9,2.1
	c1.1,0.5,1.2-0.1,2.5,1c1.3,1.1,2.4,2.3,3.5,3.6c2.9,3.5,5.3,7.5,6.8,11.9c1.2,3.4,3,9.2,0.6,12.3c-1,1.3-5.3,3.7-1.3,5.2
	c1.2,0.4,2.8-0.3,4-0.5c2.4-0.3,4.5-0.3,6.9,0.2c3.9,0.8,7.6,2.8,10.5,5.4c3.3,3,5.6,6.9,6.5,11.2c0.6,3.1-0.5,5.3-2,7.8
	c-0.6,1-1.6,2-1.6,3.2c-0.3,3.8,3.2,2.3,4.5,0.2c1.2-1.8,2.1-4,3.8-4.3c2.2-0.4,6.4,1.5,8.2,2.5c4.6,2.6,9.2,7.8,10.7,12.9
	c0.8,2.7,0.1,3.8-0.9,6.4c-0.3,0.7-0.8,1.3-0.6,2.2c1.7,8.1,11.9-16.6,33-2.7c2,1.3,6.6,4.5,7.3,7c0.5,1.8-0.2,5-0.2,6.9
	c0,2.2-0.1,4.4-0.2,6.6c-0.5,8.8-1.6,18.2-5.8,26.1c-9.2,17.5-30.2,11.2-38-3.8c-3.7-7.1-4-15.3,1.6-21.5c2.2-2.5,5.2-4.9,8.5-5.7
	c5.3-1.3,8.7,3.1,9.6,7.8c0.3,1.8,0.8,5.5-0.1,7.1c-0.5,0.9-3.8,2.9-5.1,2.7c-0.8-0.1-1.7-1.4-2.3-1.8c-0.8-0.5-1.4-1.3-2.4-1
	c-3.5,0.9-0.4,4.2,1,5.3c8.7,6.8,14.3-2.1,13.4-10.8c-1-10.1-9-16.5-18.6-11.5c-9.7,5.1-14.3,15.9-11.1,26.3
	c3.1,10.5,12.6,20.3,23.6,21.9c-11.1,1.7-20.5,11.4-23.6,21.9c-3.1,10.5,1.5,21.3,11.1,26.3c9.6,5.1,17.6-1.4,18.6-11.5
	c0.9-8.7-4.6-17.6-13.4-10.8c-1.4,1.1-4.4,4.4-1,5.3c1,0.3,1.6-0.5,2.4-1c0.7-0.4,1.5-1.7,2.3-1.8c1.3-0.2,4.6,1.8,5.1,2.7
	c1,1.6,0.5,5.3,0.1,7.1c-0.9,4.7-4.3,9.1-9.6,7.8c-3.3-0.8-6.3-3.2-8.5-5.7c-5.6-6.2-5.3-14.4-1.6-21.5c7.8-15,28.8-21.3,38-3.8
	c4.2,7.9,5.2,17.3,5.8,26.1C505,513,505.1,515.2,505.1,517.5z"/>
<path fill="#A67E51" d="M723,614.9c0-0.1-0.1-0.1-0.1-0.1c0,0,0-0.1,0-0.1c-7.1-9.2-18.3-9.1-28.4-5.2
	c-13.5-35.7-6.7-76.1-8.7-113.3c-0.8-15.8-2.8-33.7,2.5-49.1c1.2-3.6,2.9-7,5.4-9.9c1.2-1.3,5-3.1,5.3-5.1c0.7-4.8-5.3-0.7-6.4,0.3
	c-4.8,4.3-7.5,10.5-9.1,16.7c-0.8,3.2-1.4,6.6-1.8,9.9c-0.3,2.3-0.5,4.5-0.6,6.8c-0.2,2.5,0.4,5.7-0.3,8.1c-0.1,0.5-0.2,0.9-0.3,1.2
	c-0.4,0.1-0.8,0.1-1,0.2c-1.2,0.5-2.7,0.8-4,1.2c-3.4,1.1-6.8,2.2-10.2,3.1c-6.8,1.9-14.6,3.7-21.5,1.4c-9.4-3.2-9.8-12.7-11.2-21.3
	c-0.1-0.4-1.1-11.6-4.7-7.1c-1.1,1.4,0.2,5.9,0.5,7.4c0.8,4.8,1.7,9.6,2.8,14.3c1,4.3,0.7,7-0.9,11.1c-1.3,3.5-3.1,6.9-5.1,10.1
	c-4,6.3-9.2,12.4-16,15.8c-3.1,1.6-6.5,2.5-10,2.3c-5.8-0.4-7.7-4.5-10.3-9c-1.6-2.8-3.6-5.8-4.3-9c-0.4-1.7,0.9-4.7-0.1-6.1
	c-2.9-4.3-4.5,3.4-4.3,5.2c1,7.1,6.8,12.5,8.9,18.9c1.5,4.4,1.5,10.1,2.2,14.8c1.9,12.3,3.7,25.4,1,37.7c-1.2,5.6-3.4,11-7.4,15.1
	c-1.8,1.8-5.5,5.2-8.3,5.4c-3,0.2-7.6-3.9-9.5-5.8c-1.4-1.4-3.2-3.1-3.7-5.1c0.1,0.5,0.3-3.6-0.1-4.1c-0.6-0.9-1.4-1.5-2.6-1.1
	c-4,1.1-0.8,8.2,0.6,10c3.3,4.5,8.6,6.5,12.2,10.5c6.3,7.1,8.1,18,8.1,27.1c0,4.3-0.3,8.7-1.3,12.9c-0.7,2.9-2.8,11.4-6.1,12.7
	c-2.8,1.1-9.4-7.3-10.7-9.4c-0.7-1.2-1.4-2.6-1.8-4c-0.5-2,0.2-3.4,0-5.3c-0.1-0.5,0.2-1.2-0.2-1.7c-2.7-3.3-4.3,1.6-4.4,3.8
	c-0.2,6.7,4.3,12.5,9,16.7c1.7,1.5,3.7,3.6,5.4,4.9c1.7,1.2,3.8,1.7,5.6,2.6c17.5,8.8,43.1,6.3,43.3,6.3c4.5-0.2,8.9-0.4,13.3-1
	c8-1.1,15.9-3.4,22.7-7.9c6.7-4.4,11.7-10.7,16.8-16.8c5.5-6.6,11.2-12.3,18.8-16.3c4.3,10.1,12.3,25.4,25.3,22.9
	C728.5,636.1,727.9,622.2,723,614.9z M577.4,646.2c11.4-13.2,11-36.4,3.4-51.8c5.9,3,11.7,5.7,14.8,12.1c3.2,6.7,3.7,14.6,3,21.9
	c-0.7,7.5-2.9,14-7.8,19.8c0,0,0,0,0,0c-1.3,1.5-3.4,2.2-5.3,1.5C582.8,648.8,580.1,647.6,577.4,646.2z M681.7,499.9
	c0.1,2.3,0.9,5.7,0.1,7.9c-0.6,1.7-2.5,3-4,4.2c-4,3.3-8.4,6.4-13.3,8.1c-2.2,0.7-4.4,1.2-6.7,1.1c-9.4-0.6-10.2-8-12.9-15.8
	c12.1,4.4,26.7,1.7,36.8-6.4C681.7,499.4,681.7,499.6,681.7,499.9z M616.8,533.1c4.3-1.8,8.4-4.1,12.1-7c5.7-4.3,10.3-9.7,12.9-16.3
	c1.6,4.7,3.3,9.3,4.9,13.9c-2.8,7.7-7.6,15.5-14.5,20.1c-3.2,2.2-7,3.6-11,3.3c-5.3-0.4-9.7-7.4-12.9-11.8
	C611.3,534.7,614.1,534.2,616.8,533.1z M682,541.9c-3.9,5.6-10.2,13.3-18,11.5c-3-0.7-2.7-1.5-3.5-4.2c-0.8-2.6-2.8-5.8-2.2-8.6
	c1.3-0.3,2.7-0.2,4-0.3c3-0.4,5.9-1.1,8.7-2.1c4.2-1.6,8-4,11.2-7C682.1,534.6,682,538.2,682,541.9z M624.5,601.3
	c-3.1,3-7.8,4-11.9,2.5c0,0,0,0-0.1,0c0.1-0.1,0.2-0.1,0.4-0.2c0,0,0.1-0.1,0.1-0.1c0,0,0.1,0,0.1-0.1c13.3-11.5,7-33.4,5.9-49.1
	c3.7,3.6,7.7,7.3,8.4,12.4c0.8,5.4,1.9,10.8,2.2,16.3C630.3,594.1,627.5,598.4,624.5,601.3z M661.8,592.4c-2.7,0.6-4.6-2.3-6.4-4.2
	c-0.3-0.3-0.6-0.6-0.9-0.9c5.8-1.4,9.6-6.4,11.9-11.9c0.8,1.6,1.5,3.2,2.2,4.8c1.3,2.9,0.9,4.8-0.9,7.5
	C666.4,589.6,664.2,591.8,661.8,592.4z M662.5,573.8c-2,5-5.8,10.2-11.8,9.4c-2.6-2.8-5.2-5.7-7.7-8.6c7.6-1.8,13.7-6.5,17.5-13.3
	C662.3,565.4,664.3,569.3,662.5,573.8z M650.9,535.1c0.8,2.2,2.6,5.4,2.2,7.8c-0.9,5-7.1,9.3-11.2,11.4c-13.8,7-15.8,2.1-19.8-2.9
	c12.5,0,21.8-11,26.9-21.7C649.6,531.5,650.3,533.3,650.9,535.1z M655.5,547.7c1.4,3.3,3.1,7.2,2,10.4c-1.1,3.3-4.2,6.4-6.9,8.4
	c-2.7,2.1-6.8,4.5-10.2,3.6c-2.4-0.7-3.4-2.4-5-4.3c-0.5-0.6-3-2.8-4-4.1C640.1,561.4,650.9,555.4,655.5,547.7z M642.4,580.3
	c1.8,1.9,3.7,3.8,4.9,5.9c1.6,2.8,2.3,6.9,2.4,10c0.1,3.4-0.4,7-2.1,10c-0.8,1.5-2.2,3.5-3.9,4.2c-1.1,0.5-5.6,0.6-7.9,0.1
	C644.3,603.1,644.7,590.8,642.4,580.3z M682.2,524.4c-4.2,4.3-7.3,7.8-13.3,9.9c-2.7,0.9-5.6,1.5-8.5,1.7c0,0,0,0,0,0
	c-2.8,0.2-5.3-1.5-6.4-4.1c-1.2-2.8-2.4-6-2.4-8.3c10.7,5,22.3-2.5,30.6-9.7C682.2,517.4,682.2,520.9,682.2,524.4z M611.3,545.8
	c2.8,3.2,3.3,5.5,3.6,9.6c0.4,7.1,1.7,14.2,2,21.3c0.2,4.8,0.2,9.7-1.1,14.3c-0.7,2.6-1.8,5-3.5,7c-1.1,1.3-2.3,2.3-3.7,3.1
	c-0.3,0.2-0.7,0.4-1,0.5c0,0,0,0,0,0c-3.7-1.4-7.3-3-10.9-4.5c18.3-11.2,14.5-36.6,11.2-55.6C608.9,543,610.1,544.5,611.3,545.8z
	 M632.2,568.8c2.4,2.8,4.3,5.4,5.4,9.2c1.3,4.4,2,9.1,1.9,13.7c-0.1,4.7-1.1,9.6-4.1,13.3c-1,1.2-3,3.5-4.6,3.9
	c-1.1,0.3-5-0.6-6.6-1.5C636.1,598.1,634.8,582.6,632.2,568.8z M663.7,601.4c4.6,3.5,9.5,6.5,14.9,8.4c-6,0.4-12,0.8-18.1,1.1
	C663,608.3,664,605,663.7,601.4z M663.9,596.1c4-1.8,6.8-4.7,8.7-8.6c3.9,7,8.4,13.6,13.5,19.7C677.6,606,670.4,601.6,663.9,596.1z
	 M668.1,566.3c-1.6-0.2-0.9-0.2-1.7-1.2c-1.4-2-2.3-5.1-3.1-7.7c7.5,1.1,13.6-3.1,18.5-8.7C681.9,549,686.3,568.4,668.1,566.3z
	 M649.1,611.3c4.6-5.2,5.5-12.3,4.4-19.1C666.6,604.7,655.6,612,649.1,611.3z M668.9,570.6c4.6,0.4,10.1-1,13.5-4.3
	c0,0,0.5,5.7,0.9,9c0.2,1.6-0.7,3.3-2.2,3.9c-1.6,0.6-3.9,0.9-6.7-0.5C671.7,577.4,671.1,575.7,668.9,570.6z M597.6,646.6
	c2.8-4.4,4.3-9.7,5-14.8c1.4-9.7,0.6-20.5-4.2-29.2c2,0.8,4.1,1.6,5.9,2.5c3.8,2,4.3,5.7,5.4,9.7c2.2,7.9,4.2,17.2,2.2,25.3
	c-0.7,3.2-2.2,6.1-3.5,9.1c-0.7,1.7-0.7,3-2.6,3.8c-1.3,0.6-4.5-0.3-5.7-0.4c-2.2-0.2-4.5-0.5-6.6-0.9
	C595.3,650.3,596.8,647.8,597.6,646.6z M615.7,643.4c1.2-4.2,1.3-8.6,1-12.9c-0.5-7.5-2-15.3-4.7-22.4c2.2,0.7,4.4,1.4,6.5,2.3
	c3.3,1.4,4.1,3.8,5.4,7.1c1.8,4.8,3,9.8,3.2,15c0.2,5.2-0.7,10.3-3,15c-0.1,0.2-0.2,0.4-0.3,0.6c-2.1,3.3-5.8,5.2-9.7,5.2
	c-0.8,0-1.6,0-2.4,0C613,649.9,614.7,646.8,615.7,643.4z M638.6,614.6c1.6,0.1,3.1,0.3,4.6,1.2c2.2,1.4,3.9,4.2,5.2,6.3
	c14.7,23.3-2.2,26.7-4.5,27.4C650.2,638.9,645.5,624.3,638.6,614.6z M675.1,583.5c3,0.8,5.7,0.4,8.6-1c1,7,2.4,13.9,4.3,20.7
	C683.1,597,678.9,590.4,675.1,583.5z M680.8,479.3c0.1,3.2,0.2,6.5,0.3,9.7c0.2,4.4-0.5,5.8-4.1,8.3c-4.9,3.3-10.8,5.1-16.6,5.7
	c-4.6,0.5-13,0.7-16.7-2.7c-2.2-2-2.8-6.8-3.7-9.5c-0.9-2.8-1.6-5.6-2.4-8.4C650.3,490.8,667.4,483.1,680.8,479.3z M634.4,486.3
	c2.3,6.6,5.9,14.8,4,21c-2.1,6.5-6.8,11.8-12.1,15.8c-4.7,3.5-10.8,7.1-16.8,8c-4.7,0.7-5.5-1.8-7.9-5.4c-1.8-2.7-3.4-5.5-5.1-8.2
	C614.4,520.5,628.6,501.8,634.4,486.3z M600.8,532.4c2.2,3.5,2.6,6.2,3.1,10.2c1.1,7.7,2.3,15.4,2.4,23.2c0.1,7.2-0.6,15.1-4.7,21.3
	c-2,3-5.5,6.5-9.1,7.4c-3.2,0.8-8.5-2.8-12.1-5.1c23.2-11.8,17.9-44.1,14.3-66.6C596.8,526,598.8,529.2,600.8,532.4z M631.3,634.5
	c0.2-7.6-1.8-15.1-4.9-22c1.7,0.3,3.4,0.6,4.9,1.1c2.6,1,3.9,3.2,5.3,5.5c2.7,4.3,4.6,9.1,5.5,14.1c0.9,5.1,0.8,10.8-2.3,15.1
	c-3.1,4.3-8.7,4.4-13.8,4.6C629.8,648,631.2,640,631.3,634.5z M660.5,640c-0.7,0.6-1.3,1.1-2,1.7c2.7-8.6-4.2-19.9-10.1-26.4
	c3-0.1,5.8-0.1,8.2,1.8c2.6,2.2,5,5.2,6.8,8.1c2.1,3.4,3.3,6.1,1.2,9.7C663.4,636.8,662.4,638.2,660.5,640z M670,629.7
	c-1.1-5.6-5.2-10.5-9.2-14.5c7.5-0.3,15-0.9,22.6-1.3c0.9,0,2.1,0,3.2-0.1C680.1,618.1,675.1,623.8,670,629.7z M711,633.1
	c-7.2-4.2-11.5-12.1-14.9-19.6c5.8-2.2,12.8-3.8,18.6-0.7c3.8,2,6.2,5.9,7.3,10C723.8,630.1,718.5,636.4,711,633.1z"/>
<path fill="#695951" d="M546.8,298.3c-1.3,16-1.8,32.1-1.5,48.2c0.3,16.8,0.6,33.4-0.1,50.2c-0.6,14.7-0.4,29.7,6,43.2
	c4.3,8.3,12.6,14.3,22.3,12.6c9.9-1.7,18.1-10.7,20.7-20.1c2.6-9.4-1.7-19-10.5-23.3c-8.7-4.3-15.7,1.6-16.4,10.7
	c-0.6,7.8,4.5,15.7,12.2,9.4c1.2-1,3.8-4,0.7-4.8c-0.9-0.2-1.4,0.5-2.1,1c-0.6,0.4-1.3,1.6-2.1,1.7c-1.2,0.2-4.1-1.5-4.6-2.3
	c-0.9-1.4-0.5-4.8-0.2-6.4c0.7-4.3,3.7-8.3,8.4-7.2c2.9,0.7,5.7,2.8,7.7,4.9c5.1,5.4,5.1,12.8,1.9,19.2c-6.7,13.6-25.3,19.7-34,4.2
	c-3.9-7-5.1-15.4-5.7-23.2c-0.2-2-0.3-3.9-0.4-5.9c-0.1-1.7-0.7-4.6-0.3-6.2c0.6-2.3,4.6-5.2,6.4-6.4c18.6-12.9,28.2,9.1,29.6,1.8
	c0.1-0.7-0.4-1.3-0.6-1.9c-0.9-2.3-1.6-3.3-1-5.7c1.3-4.7,5.2-9.4,9.3-11.8c1.6-0.9,5.3-2.8,7.3-2.4c1.6,0.3,2.5,2.1,3.5,3.8
	c1.2,1.8,4.3,3.1,4-0.3c-0.1-1-1-1.9-1.5-2.8c-1.4-2.3-2.4-4.2-1.9-7c0.7-3.9,2.8-7.5,5.6-10.2c2.6-2.4,5.8-4.3,9.3-5.1
	c2.1-0.5,4-0.6,6.1-0.3c1.1,0.1,2.5,0.8,3.6,0.3c3.6-1.4-0.4-3.5-1.3-4.6c-2.2-2.7-0.7-7.9,0.3-11c1.3-3.9,3.3-7.6,5.9-10.8
	c0.9-1.2,1.9-2.3,3.1-3.3c1.2-1,1.3-0.5,2.2-0.9c0.9-0.4,1.7-0.7,1.6-1.9c0-0.7-0.8-1.4-0.9-1.5c-2.6-4.8-1.4-10,1-14.6
	c3.3-6.2,9.1-13.6,15.9-16c7.4-2.6,17.8,0.5,24.8,3.6c12.7,5.6,15.8,19.5,12.4,31.9c-3.8,13.8-17.9,30.4-33.7,22.7
	c-7-3.4-11.8-10.6-11.5-18.6c0.3-7.5,5.8-14.8,13.7-15.2c4.4-0.2,8.5,2.2,10.6,6c1,1.9,1.6,4.2,0.8,6.2c-1.3,3.1-3.3,2-5.3,3.4
	c-1.7,1.2-1.7,3.3,0.7,3.6c4.1,0.5,8-3.8,8.6-7.5c0.8-4.6-1.9-9.3-5.4-12.2c-8.1-6.5-19.8-2.4-24.9,5.8
	c-10.6,17.2,10,38.5,27.9,32.9c18.7-5.9,30.2-34,20.5-51.2c-10.9-19.5-42.3-16.8-60.8-15.6c-18.3,1.2-36.4,1.7-54.7,1.7
	c-4.3,0-8.5-0.1-12.8,0.2c-4.2,0.2-8.5,1-12.8,0.8C546,289.6,547.2,293.5,546.8,298.3z M617.3,292.2c-4,4.4-5.8,11.1-5.5,16.9
	c-2.8-0.8-6.3-1.5-8.6-3c-4.3-2.8-2.9-6-0.4-8.6c3.1-3.2,7.5-5,12-5.2C615.6,292.3,616.4,292.2,617.3,292.2z M648.8,290.2
	c0.6,0,1.3,0,1.9,0c-9.3,5.9-18,18-16.3,28.9c-1.4-0.8-2.8-1.5-4.2-2.3c-2.6-1.5-3.3-2.6-3.2-5.7c0.1-4,1.8-8,4-11.3
	c2.4-3.5,5.4-5.9,9.2-7.6c0,0,0,0,0,0C642.8,290.9,645.8,290.2,648.8,290.2z M549.5,314.6c0.1-0.1,4.5-7.2,6.4,1
	c0.7,2.9,1.3,5.9,1.8,8.8c-3.2-0.7-6.3,0.4-8.7,2.6C549.1,322.9,549.3,318.8,549.5,314.6z M569.7,292.9c1,0,2.1,0,3.1,0
	c-0.4,0.6-0.8,1.2-1.1,2c-1.3-0.6-2.7-1.2-4-1.9C568.4,292.9,569.1,292.9,569.7,292.9z M574.4,300c3,1.2,6,2.3,9,3.4
	c-2.4,1.2-3.9,3.3-4.6,5.9c-2.4-2.4-4.8-4.8-7.2-7.1C572.6,301.6,573.5,300.9,574.4,300z M591.1,306.4c1.3,0.1,2.7,0.5,4,1
	c-3.9,2.2-5.9,6.6-7,11c-1.9-1.5-4.1-3.1-5.3-5c-1.6-2.5-0.1-5.9,2.6-6.9C587.1,305.8,589.4,306.2,591.1,306.4z M567.8,303.8
	c1.8,1.7,3.6,3.4,5.4,5.2c0.9,0.9,1.8,1.8,2.6,2.7c0.3,0.3,1.1,0.9,1.7,1.5c-3,0.1-5.6,1.4-7.3,3.8c-1.6-3.6-3.3-7.2-5.2-10.7
	C565.9,305.4,566.7,304.4,567.8,303.8z M563.4,323.7c1-0.8,2-0.8,3-0.5c1.8,0.5,3.2,1.8,4,3.5c0.4,0.8,0.8,1.7,1.2,2.5
	c-4,0.6-6.8,3.4-8.2,7.1c-0.3-1.5-0.4-3.5-0.6-4.1C561.4,325.1,562.5,324.4,563.4,323.7z M567.6,351.9c-0.2-0.6-0.3-1.2-0.5-1.7
	c-1.1-4.1-1.2-8.4-0.3-12.5c0.1-0.6,0.3-1.2,0.5-1.6c0.9-1.6,3.4-4,5.5-3.4c1.2,0.4,2,2.8,2.5,3.7c1.3,2.4,2.8,4.8,4.2,7.1
	c-2.8,1-5.3,1.3-7.9,3.5C570,348.3,568.6,350,567.6,351.9z M584.1,319.8c-4.7,0.3-8.4,3.2-9.2,7.8c-0.3-0.8-0.6-1.6-0.7-1.9
	c-0.9-1.9-2.1-4.1-1.1-6.2C573.5,318.6,577.1,313.4,584.1,319.8z M580.7,338.2c-1.4-2.4-2.2-5.1-2.3-7.9c0,0,0,0,0,0
	c-0.2-6.9,7.5-10.5,15.3-2.1c-2.7,0.3-5.1,1.4-7.2,3.2c-2.7,2.3-3.8,5.1-4.9,8.2C581.3,339.2,581,338.7,580.7,338.2z M560,309
	c0.5-0.3,1-0.6,1.5-0.8c1.9,3.7,3.7,7.4,5.5,11.2c-2.3-0.4-4.5,0.1-6.3,1.7c-0.4-1.9-0.7-3.8-1.2-5.7
	C558.9,312.7,557.9,311.1,560,309z M569.2,357.9c1.3-4.9,4.4-9.1,9.4-10.6c3.2-1,4.1,1.2,5.6,3.6c1.3,2.1,2.7,4.2,4,6.4
	c-7.4,1.6-12.3,8.6-14.6,15.6C572.1,368,570.6,363,569.2,357.9z M608.5,337.5c-2.9-2.4-6.7-5.3-7.4-8.7c-0.7-3.8,0.4-8.2,3.1-11.1
	c5-5.4,12.4-3,18.2-0.4C614.1,320.7,610,328.8,608.5,337.5z M597.2,326.7c-1.9-1.5-4.2-3.2-5.2-5c-1.2-2.1,0.3-5.5,1.4-7.6
	c3.2-5.7,8.8-4.5,14-2.7C601.1,313.5,597.2,320,597.2,326.7z M585.9,346.6c-2.2-3.9-1.2-7.3,1.7-10.9c2.9-3.6,7.6-5.4,11.6-2.2
	c2.5,2,4.8,4.5,7.1,6.8c-3.9,0.5-7.3,2.4-10.1,5.3c-2.9,3-3.7,6.1-4.8,9.6C589.4,352.4,587.6,349.5,585.9,346.6z M551.1,345.7
	c1.7-2.1,5.2-5.9,8.3-5.3c2.6,0.5,2.9,5.9,3.4,7.9c0.6,2.2,2.2,5.7,2.6,8.4c-2.3-1.2-3.9-2.4-7.2-1.9c-3.4,0.5-6.3,2.2-8.8,4.4
	C549,354.6,548.1,349.4,551.1,345.7z M554.9,298.3c1.8,2,3.3,4.3,4.7,6.6c-0.9,0.5-1.7,1.1-2.4,1.7c-1-3.2-2.1-6.3-3.5-9.4
	C554.1,297.6,554.6,298,554.9,298.3z M556.8,328c2.6,0.5,2.9,5.7,3.3,8.8c-4.5-0.2-8.2,2.5-11.2,5.8c0-0.9,0-1.8,0-2.7
	c0-1.5-0.3-3.5,0-5c0-0.1,0-0.1,0-0.2c0,0,0,0,0-0.1C549.3,331,552.9,327.2,556.8,328z M549.7,377.6c0.1-3.4,0.1-6.9,0-10.3
	c-0.1-5.6,2.9-7.5,6.4-7.8c5.5-0.5,10.6,3.2,12.2,8.5c0.8,2.8,1.7,5.5,2.6,8.3c-7.1-4-15.9-4-21.3,2.3
	C549.7,378.2,549.7,377.9,549.7,377.6z M580,389.8c-1.9-3.9-4.3-8.5-3.5-12.6c0.7-3.8,2.2-7.5,4.6-10.6c2.3-3,7.1-7.4,10.5-3.9
	c2.9,3,5.1,7.8,7.2,11.6C590,375.6,583.5,381.7,580,389.8z M623.4,313.7c-2.3-0.8-5-1.5-6.8-2.8c-2.8-2.1-1.3-18.9,11.7-19.4
	c2.1-0.1,4.1-0.3,6.2-0.4C627.2,295.9,622.6,304.9,623.4,313.7z M585.9,300.4c-1.8-0.6-3.6-1.3-5.4-1.9c-0.8-0.3-3.9-1-4.3-1.7
	c-0.6-1,0.7-3.3,1.7-3.9c1-0.6,4.6-0.1,5.9-0.1c1.6,0,3.2,0,4.8,0C586.5,294.8,585.5,297.5,585.9,300.4z M568.2,299.1
	c-0.5-0.4-0.9-0.8-1.4-1.2c-1-0.8-1.9-1.5-2.9-2.3c-1.1-0.8-2.2-1.5-3.3-2.2c0,0,0.1,0,0.1,0c0.9,0.1,2.2,1.2,3,1.6
	c2.2,1.1,4.4,2.1,6.6,3.1C569.7,298.7,569,299,568.2,299.1z M562.9,302.8c-0.9-1.5-2.5-4-4.3-6.3c2.1,1.4,4.1,3,6,4.5
	C564.1,301.6,563.6,302.2,562.9,302.8z M554,308.5c-0.9,0-1.9-0.3-2.8-0.1c-0.5,0.1-0.9,0.3-1.4,0.6c0.2-3.3,0.4-6.6,0.7-9.9
	C551.8,302.1,553,305.3,554,308.5z M549,398.2c0.1-2.6,0.2-5.2,0.2-7.9c0.1-2.8,0.8-5.6,2.2-8.1c0.1-0.2,0.2-0.3,0.3-0.5
	c2.6-4,7.3-5.4,11.9-4.5c3.1,0.6,7.6,2.3,9.5,5.1c1.2,1.7,1.7,4.3,2.5,6.2c0.4,0.9,1.6,2.9,2.3,4.6
	C568.6,387.1,556.6,390.7,549,398.2z M600.3,369.7c-0.9-1.4-1.8-2.9-2.7-4.3c-1-1.6-3.2-4.1-3.6-6c-0.8-3.6,2.5-8.9,4.8-11.3
	c2.7-2.8,7.7-5.6,11.5-3.7c1.9,0.9,3.6,3.2,5.2,4.5c1.3,1.2,2.6,2.3,4,3.4C610.2,354,602.7,360.5,600.3,369.7z M617.5,345.7
	c-1.5-1.3-4.1-2.9-5-4.5c-1.8-3.3,1.1-9.8,2.8-12.8c2.2-3.9,5.4-6.9,9.7-8.2c1.7-0.5,1.8-0.6,3.2-0.3c1.9,0.4,4.2,2.1,6.1,3.3
	c-7.3,6.6-12.3,16.4-11.8,26.4C620.7,348.4,619.1,347.1,617.5,345.7z M601.7,292.7c0.1,0,0.3,0,0.4,0c-3.6,2.7-5.3,7.1-4.4,11.6
	c-1.8-0.6-3.7-1.1-5.4-1.8c-1.4-0.6-2.3-0.8-2.7-2.3c-0.3-1.4-0.1-2.8,0.8-3.9C592.2,293.7,600.6,292.8,601.7,292.7z"/>
</svg>
